/* XPM */
static char *_530_e1b30d4ea25b33ad858d73ab921663ab77b094119e3f03e56d7e6b619e1add97[] = {
/* columns rows colors chars-per-pixel */
"64 64 211 2 ",
"   c #000000",
".  c #0D0D0D",
"X  c #111111",
"o  c #1B1D1C",
"O  c #171A18",
"+  c #101110",
"@  c #1E201F",
"#  c #3D220F",
"$  c #21231F",
"%  c #37271A",
"&  c #1F2221",
"*  c #232423",
"=  c #2D2D2C",
"-  c #272928",
";  c #332F2B",
":  c #2F3534",
">  c #333533",
",  c #323836",
"<  c #353B39",
"1  c #3A3E3C",
"2  c #393935",
"3  c #3D332A",
"4  c #40240F",
"5  c #422611",
"6  c #4D2D14",
"7  c #432C1C",
"8  c #472A17",
"9  c #542F1A",
"0  c #512F14",
"q  c #49331E",
"w  c #5C321C",
"e  c #583418",
"r  c #64341F",
"t  c #61391A",
"y  c #432E22",
"u  c #4C3422",
"i  c #493728",
"p  c #5B3C26",
"a  c #563A25",
"s  c #4B3C32",
"d  c #533C33",
"f  c #6C3A23",
"g  c #693722",
"h  c #743C25",
"j  c #763D29",
"k  c #7B3D29",
"l  c #793D27",
"z  c #3A403E",
"x  c #76491F",
"c  c #6F411F",
"v  c #5B432A",
"b  c #47453F",
"n  c #594630",
"m  c #594735",
"M  c #6A4527",
"N  c #734424",
"B  c #7C4327",
"V  c #7C4C24",
"C  c #7D422A",
"Z  c #7E4B2A",
"A  c #77512F",
"S  c #634A39",
"D  c #7B5530",
"F  c #755232",
"G  c #744936",
"H  c #3B3F40",
"J  c #3D4140",
"K  c #424543",
"L  c #454945",
"P  c #464A49",
"I  c #494E4A",
"U  c #4A4C47",
"Y  c #534C41",
"T  c #4D514D",
"R  c #52534E",
"E  c #4F5451",
"W  c #515651",
"Q  c #555A54",
"!  c #595C55",
"~  c #5B5E5A",
"^  c #645E58",
"/  c #685547",
"(  c #5D625C",
")  c #61655E",
"_  c #67675D",
"`  c #626660",
"'  c #656A63",
"]  c #6A6D65",
"[  c #6C6F69",
"{  c #6D7166",
"}  c #6E736B",
"|  c #72756C",
" . c #75796D",
".. c #797C6F",
"X. c #707267",
"o. c #737571",
"O. c #767B71",
"+. c #7A7D73",
"@. c #7B7E79",
"#. c #84442C",
"$. c #844B2D",
"%. c #8B4B2D",
"&. c #864A2A",
"*. c #914D2F",
"=. c #8B542C",
"-. c #8A552A",
";. c #945C2B",
":. c #985E2D",
">. c #93512F",
",. c #8C4730",
"<. c #8E4C32",
"1. c #854430",
"2. c #934D32",
"3. c #994C38",
"4. c #8D5233",
"5. c #955332",
"6. c #9C5434",
"7. c #955D31",
"8. c #9C5A34",
"9. c #9E553A",
"0. c #A15636",
"q. c #A35C36",
"w. c #A5563B",
"e. c #A45C39",
"r. c #AB5D3A",
"t. c #9D6533",
"y. c #A56336",
"u. c #A6623A",
"i. c #AC633B",
"p. c #AE6A3C",
"a. c #A56935",
"s. c #B2643C",
"d. c #B46C3D",
"f. c #BA6C3E",
"g. c #AD7238",
"h. c #B5733C",
"j. c #BA733E",
"k. c #B5783C",
"l. c #B87A3D",
"z. c #AD5842",
"x. c #B25C41",
"c. c #B66B41",
"v. c #BB6D42",
"b. c #B66444",
"n. c #BD7342",
"m. c #BB7941",
"M. c #A87854",
"N. c #C36D48",
"B. c #C37444",
"V. c #C57A44",
"C. c #CB7D46",
"Z. c #C77A49",
"A. c #CC7E49",
"S. c #CA754A",
"D. c #D07E4A",
"F. c #D57E51",
"G. c #7D8076",
"H. c #7E8279",
"J. c #818276",
"K. c #82847B",
"L. c #85897E",
"P. c #CC8147",
"I. c #CE8149",
"U. c #CC8847",
"Y. c #D2844B",
"T. c #D8874F",
"R. c #D5894D",
"E. c #DA8C4E",
"W. c #D28946",
"Q. c #DC924D",
"!. c #DC9A4D",
"~. c #D59248",
"^. c #DA8651",
"/. c #DB8A51",
"(. c #D78652",
"). c #DE9251",
"_. c #E0984D",
"`. c #E18D56",
"'. c #E38E58",
"]. c #E29354",
"[. c #E49C53",
"{. c #E59359",
"}. c #E99959",
"|. c #E2A24E",
" X c #E6A154",
".X c #E9A555",
"XX c #EBAA55",
"oX c #EEAA5A",
"OX c #EFA75B",
"+X c #F0A65B",
"@X c #868A81",
"#X c #898D84",
"$X c #868983",
"%X c #8B9186",
"&X c #8D928A",
"*X c #90958D",
"=X c #92998F",
"-X c #959B92",
";X c #989E95",
":X c #9B9B9A",
">X c #9BA298",
",X c #A2A89E",
"<X c #9FA0A2",
"1X c #A1A1A1",
"2X c #BABAB9",
"3X c #BDACA2",
"4X c #D3BFB2",
"5X c #D3BCAE",
"6X c #BFC1BE",
"7X c #CDCECC",
"8X c #E5E4E2",
/* pixels */
"                                                    L ( ( ( ( ( Q ( ( ( ( J .                                                   ",
"                                                  T =X&X$X%X%X%X&X%X$X%X%X@.W                                                   ",
"                                                . o.G.G.@.$X@.@.@.H.} } ] ] ( .                                                 ",
"                                                . } O.O.H.@.H.M.$Xo.` ` ] } W .                                                 ",
"                                                  P O.G.O.O.+.+.J.O.' ] ] } -                                                   ",
"                                                  *  .O.O.O.+.+.K.O.} [ ' ( @                                                   ",
"                                                  @ |  . .J.O.| @.| O.} o.] z .                                                 ",
"                        . X               + & ' ( P ' { O.J.| | M.O.O.O.O.) Q | ] $ + .           O .                           ",
"                      * ( @.R       @ z ] %XG.H.O.W T O.| } ] [ o.o.@.@.} Q ' H.G.H.$XH.L o     L %X .-                         ",
"                    . | %XG.' L   . } *XO.} o.[ } W K ' +.O.o.+.o.o.G.@.G.E H.H.} ( o.@.%X( X K L.L.*X%X@                       ",
"                  O +.@.@.O.G.' ' ( @XG.O.O.O.o.| ' J @.L.J.@.L.H.H.G.} G.P H.G.} ' } [ +.} _ L.L.L.J.K.O.-                     ",
"                1 H.O. . .|  .| } ( ' H.@XO.G.O.o.} I [ }  .H.@.G.H.o.} ] Q L.} G.G.[ G.} I O.L.L.L.L.J.G.} L                   ",
"              z } L.| O.+.H.O.H.H.{ Q } O.{ O.} { Q 1 T ( ( ( ( Q ( ( ~ E E G.} G.} | O.! ) #XL.L.L.L.L.L.K.}                   ",
"                O ` o. .| O. .O.} H.( (  .] _ / 8 M $.1.8.u.5.Z z.u.8.4.<.$.a S ( ( | _ T #XK.K.J.J.G.L.@X} *                   ",
"                  . W H. ...| | G.O.O.R y u G 6.5.8.e.e.t.z.9.4.M.c.x.u.x.z.u.z.D G % P +.L.K.J.H.L.J.L.) X                     ",
"                  J T W O.o.+.O.H.o.Q y 9 b.c.8.8.e.i.u.z.c.u.7.Z.n.c.c.c.c.p.p.g.M <.q ` @XO.G.L.J.J.! T !                     ",
"                + | H.Q ' o.| ] } ! u Z f p.c.i.u.c.c.c.c.n.c.t.Y.A.A.m.n.Z.c.c.b.M v.7.p U ` } O.| W ! @X} O                   ",
"              = H.L.O.@XT Q O.( b p =.y.N c.n.c.c.Z.m.A.Z.I.m.a.).(.Y.(.I.I.Z.P.Z.N S.c.e.M s E T L @XK.O.H.X.>                 ",
"              ( L.+. . .` 1 z b w 4.8.u.N n.B.n.m.Z.P.I.P.I.m.a.{.(.(.(.I.(.U.(.A.-.F.n.b.e.f < z *XH.K.#X@X .(                 ",
"            T L. .O.O.K.K.{ 2 e =.e.y.d.Z I.I.A.Z.I.I.R.I.R.I.m.}.).R.E.I.(.Y.(.I.$./.P.n.c.u.f Y | O.H.L.J.J. .T               ",
"          = J }  . .O.O.} % f 5.u.d.h.B.Z R.Y.I.U.Y.(.E.R.R.P.g.}.)./.E.Y.R.U.R.R.=./.E.Z.m.v.c.B 7 O.+.H. .G.X.K >             ",
"          Q ( J ( }  .L.( 7 z.t.i.c.m.m.Z Q.(.R.Y.R.R.R.R.R.P.m.}.]./.T.Y.R.Y.(.).;.}.(.P.Z.n.c.p.N (  .G.X.) K ( Q             ",
"        . O.K.G.[ ` { } q V u.u.c.Z.V.P.-.Q.(.R.I.Q.R.).(.).U.m.}./.R.R.U.(.R.I.E.;.).Q.R.P.Z.c.c.c.9 ~ ) ( ' @.} ( .           ",
"        K  .} O.| G.} 3 Z 7.i.c.Z.P.P.P.;._.(.R.R.Q.R.R.(.R.P.k.}./.Y.R.P.R.Y.R.(.;.~.Q.I.P.P.m.n.p.D y ' O.|  .X. .L           ",
"        1 | .. .X. .X.S =.:.c.n.A.I.Y.I.;.XXE.Y.E.].R.W.(.W.V.m.[.W.Y.R.P.R.I.R.(.t.~.Q.P.P.A.V.n.d.c.d { | }  .O. .!           ",
"        U O.| X...X.' G y.g.n.B.A.I.Y.I.;.XXT.R.).`.Y.T.R.(.P.k.[.Y.Y.Y.P.Y.I.Y.E.;.~.Q.I.P.P.V.Z.j.d.7.( }  .} X.G._           ",
"      . _  .O.| O.} Y %.p.j.B.C.I.Y.R.R.;..XR.Y.E.E.Y.Y.I.R.m.g.[.T.T.Y.P.Y.R.E.~.;.!.Q.Y.U.A.V.m.f.d.c.m { O.} .. .X.O         ",
"      X L K z J z J m 8.j.B.C.Y.Y.(.R.R.;.XXE.T.R.R.Y.P.I.R.Z.m.{.(.E.Y.P.(.E.E.E.7.!.).R.I.R.P.V.Z.m.m.i J J J z K P @         ",
"1 `  .&X>X;X;X;X>XK.s a.I.T.Y.Y.E.Q.E.E.;.oX].T.Q.W.Y.U.Y.R.P.g.]./.Q.Y./.E.Q.).).;.!.).R.Y.R.R.W.I.P.p.v ` *X*X$XL.-X=X#X+.[ 1 ",
"J K.| +.} ' ] | O.] n d.D.D.C.I.R.E./.R.;.oX'.Y.Y.R.R.R.U.R.U.m.].T.Q.T.).R.Q./.E.;. X{.(.(.U.R.Y.I.P.m.F ( O.G.G.H.$Xo.| +.) z ",
"J -X} O.O.| ] ] | ) n h.P.Y.Y.I./.R./.T.;.XX].T.R.I.R.Y.I.R.P.P._.E.Q./.Q.R./.T.(.t.oX).R.U.Y.Y.R.I.(.m.F ] G.O.G.H.$XH.o.@.( z ",
"J >X| O.K.@XK. .} ] n h.C.I.Y.I.Q.Y.T.R.;.oX'.T.Y.Y.Y.Y.Y.Y.P.g.!.T./.Q.Q.R.R./.R.;.oX{.R.Y.Y.R.I.I.Y.U.F [ } O.O.G.@.H.H.M.( K ",
"z %X| G.+.@.J.J.| ` n j.C.Y.Y.Y.E.T.T.Y.;.oX'.Y.Y.Y.W.Y.I.Y.W.g._.T.T.].E.R.Y.T.T.;.XX'.Y.Y.W.Y.P.T.Y.Q.F O.G.G. .G.H.@.O.G.( J ",
"K G.} O.@.@.@.@.+._ n h.C.C.D.Y.R.Y.Y.T.;.XX/.Y.Y.Y.Y.Y.P.Y.V.g.[.Y.Y._.`.E.Y.Y.Y.;.XX'.Y.Y.I.Y.I.Y.T.~.F o.H.H.G.O.G.@.} } ( z ",
"z | ] _ _ ] ' | O.` n h.C.C.I.I./.Y.T.Y.;.XX`.I.C.D.P.Y.C.I.C.k.!.Y.Y.E.`./.Y.T.T.;.XX`.C.Y.I.Y.I.I.Y.|.F ] G.O.[ ] O.} ] ] W J ",
"J ` ( ( ( ( ( ) ` ! v j.C.C.C.C.R.Y.T.Y.;.OX'.P.C.I.D.Y.Y.C.C.a.].T.T.T.T.E.Y.Y.Y.;.+X`.C.I.C.Y.Y.P.(.|.M Q ( ( ( ( ( ( Q W T J ",
"J J J z J J z K J J n p.P.T.Y.Y.T.Y.Y.Y.;..XE.D.I.P.Y.P.I.P.V.g.].Y.P.T.D.~.I.Y.Y.;..XE.C.I.C.D.I.C.T.!.M J J J J J J z z z z K ",
"      X ' #X;X;XL.] n p.C.Y.C.D.R.P.Y.D.V XXE.Y.C.C.C.D.I.C.C.a.].Y.I.Y.C.E.D.Y.P.&..XQ.C.C.C.A.Y.A.T.!.M ( L.=X>XL.[ *         ",
"      + | #X&XL.G.{ n j.C.Y.Y.P.Y.Y.I.Y.V  XT.I.C.Y.C.Y.P.I.C.a.].Y.I.D.P.Y.D.Y.Y.x _.E.V.C.C.A.C.C.C.!.M o.L.} | X.) *         ",
"      X ) J.*XJ.| ] n h.C.Y.Y.I.Y.Y.I.Y.;. XW.I.I.I.P.Y.P.U.V.a.].D.C.C.I.Y.D.C.Y.;..XW.B.V.V.Z.C.A.A.R.M o.H.G.O.O.] @         ",
"      X (  .J.H.G.X.v j.C.I.Y.I.W.Y.Y.Y.;. XY.Y.C.I.I.Y.Y.C.P.g.E.D.C.D.P.P.P.C.I.;..XR.B.V.B.B.B.B.V.~.F O.O.@.o. .| *         ",
"      X ( X.G.J.G.] v l.C.P.D.Y.I.D.P.T.;..XF.D.C.Y.I.Y.I.C.P.g.^.A.C.D.D.C.C.C.Y.-..XF.B.M.3X4X5X5Xi.!.D ' o.{ ' ] ' *         ",
"      + ( } +.M.X.) n d.C.C.P.Y.I.I.Y.C.;..XY.C.C.D.I.I.Y.Y.B.k./.A.D.P.I.C.A.C.E.-..XI.d.S o.o.o.o.8.!.A ` o.` ( ( ( @         ",
"      X ' } } ' ' ( n j.V.C.C.A.Y.C.D.C.x [.T.Y.P.Y.D.D.Y.C.B.a.`.A.C.D.W.P.D.D.~.x .XY.b.y K 2XT [ -.!.A ( } { ( ( ) &         ",
"      . Q Q ( ( T T n h.Y.D.A.C.I.P.I.I.x XXT.Y.Y.I.C.Y.R.I.Z.t.].Y.C.I.R.P.Y.Y.Y.x XXY.d.^ @.:X:X2Xm C.p W ` ` ( ) ( *         ",
"z J J J H H H J , < n h.C.C.I.C.I.C.P.I.x XXT.Y.Y.I.P.Y.R.R.V.k.].Y.C.Y.W.Y.Y.Y.Y.&.XXI.S 4X` ` 2 1X8X5.p H 1 J 1 z z z K P P L ",
"H H.%X>X,X>X>X=X-XL.n h.A.A.C.A.C.C.D.Y.-..X`.C.Y.P.I.I.(.Y.A.h.}.Y.C.C.Y.Y.Y.Y.E.x XXY.u @.= ; ; ; 7Xc p ] =X-X-X=X=XL.L.O.} 1 ",
"1 #XG.o.G.G.H.H.O.) n j.A.C.A.C.C.C.C.D.x _.`.Y.Y.I.Y.A.T.I.n.7.].Y.C.C.Y.C.C.Y.Y.&..XW.7 o.~ ` P ; 1Xe p [ X.' [ X.| G.K.@.( z ",
"< #X| @.@.J...O.O.) n d.C.V.Y.C.A.C.C.D.c _.^.D.C.Y.C.P.Y.D.f.;.Q.D.V.C.D.D.C.C.C.-.[.C.q $X| 2 = :Xo.r v ' { ` (  .L.&XJ.M.( J ",
"z &X| +.K.K.O.X.| _ n p.C.V.C.C.C.B.B.C.t _.`.D.D.D.C.D.Y.Y.j.;.T.W.B.C.C.C.D.C.C.t .XD.l K 1X7X2X[ ; 0 v } G.] ]  .J.L.J.+.( J ",
"z >X .H.J.J. .| { ` n h.S.C.B.N.B.f.j.f.0 |.T.S.B.D.C.C.C.Y.n.:.E.C.j.C.C.C.C.C.C.t _.A.V 6 5 % % q h d.a o.K.G.+.G...+.G.@.( J ",
"z L.O.O.+.J...X.} ( m s.B.C.B.f.B.f.f.f.0 Q.F.S.B.C.D.B.Z.C.d.:.`.C.j.B.B.V.B.B.B.t _.S.y.V.V.B.C.V.V.W.u ] H.K...J.K.J.} @.' J ",
"z #XO.+.J.J.} X.X.~ n r.B.B.N.f.f.f.f.s.t _.F.N.B.B.C.f.S.S.s.;.^.B.f.f.f.V.f.j.f.e _.f.y.B.j.j.y.B.B.W.u ] G.H.G.} G.L.G.[ ( J ",
"K [ { [ ' ` ) ( ` Q n s.N.B.f.s.s.s.s.r.0 E.S.N.f.B.C.f.f.B.s.-.D.f.s.s.s.f.f.f.f.e Y.f.:.s.s.i.5.q.:.W.q T ` { } ' ` ] ( E J J ",
"1 U P P 1 z P I P K d w.N.f.0.0.s.r.r.r.t ~.N.b.s.f.B.s.f.B.q.;.C.f.:.y.r.s.s.s.s.0 W.s.%.6.8.5.%.>.8.V.q z z z z P I I J , : J ",
"      X ) #X-X@XL.] d *.0.0.0.w.0.0.0.0.0 W.N.s.r.f.s.r.r.j.0.-.B.s.q.:.r.r.r.r.r.e D.s.%.5.6.&.&.%.>.V.q ( L.-X>X%X} &         ",
"      X ` ] | @.O.| d %.6.6.6.0.0.0.6.>.0 W.N.w.w.s.r.r.q.d.6.&.B.r.0.6.0.0.0.r.0.0 V.r.#.%.&.#.#.%.#.V.q } G.| { } { -         ",
"      . ) | O.O.| { d %.2.6.2.2.2.2.2.*.0 f.b.6.0.0.0.r.w.s.>.-.f.6.6.6.6.6.6.6.6.0 j.w.B B #.h h &.#.h.v } G. .O.O.` &         ",
"      X _ O.O.| | X.s #.,.2.*.2.2.*.*.#.6 s.s.2.2.6.2.0.0.q.*.&.s.*.*.&.2.*.*.*.2.6 q.3.l h l x x k B q.v } G.o.O.} { &         ",
"      X { H.o.| | X.i #.#.B #.#.#.#.#.k 4 r.z.,.,.,.*.6.*.2.,.B s.,.*.#.#.#.,.#.,.5 0.2.h h l #.h l h 8.7 ' | O.} G.G.&         ",
"      X ' O.| | ] ^ s j k k k B C k j h 5 w.3.#.#.,.,.2.,.1.1.B w.#.#.h l k #.#.C 8 ,.,.h h h h l h h %.% ( | O.+.H.O.o         ",
"      X ` o.' ' ` Q s j l h l h k h h h 4 3.3.k #.k ,.%.k 1.#.#.w.#.k h h l k l #.5 k ,.g f h j f h r %.a ~ |  .H.J.O.*         ",
"      . ~ ` ( ( ~ E s h l h j g l h g l # 5.3.l j k k %.k k k j 3.k l g h h k h l # k C g g f h r f r %.u W ' ' [ X.} *         ",
"      X , , 1 , , , i w w w w w r e 9 9 4 r h w w w w r r w r w g r w w w w w w w 5 w r 9 9 9 w e e 9 w 7 , , 1 1 J K &         "
};
