/* XPM */
static char *_7766_98df51740c84b7dcf6d2c16aca78caf2c40e2dfd714d1bc311d12a46ea853798[] = {
/* columns rows colors chars-per-pixel */
"64 64 252 2 ",
"   c #000000",
".  c #0B0C0A",
"X  c #090805",
"o  c #130E0C",
"O  c #171614",
"+  c #12110F",
"@  c #2C1D1A",
"#  c #1D2522",
"$  c #372923",
"%  c #2B352F",
"&  c #25231C",
"*  c #49332A",
"=  c #603F38",
"-  c #386B1D",
";  c #185D33",
":  c #1A5C2C",
">  c #2E5035",
",  c #1A653A",
"<  c #176B3C",
"1  c #196B3C",
"2  c #186437",
"3  c #1A733E",
"4  c #1D7A3E",
"5  c #1D612E",
"6  c #276628",
"7  c #277A3C",
"8  c #327030",
"9  c #245F1F",
"0  c #5B4635",
"q  c #714E3A",
"w  c #4A7A27",
"e  c #4D7918",
"r  c #394B45",
"t  c #1D7A41",
"y  c #196F40",
"u  c #267A41",
"i  c #347248",
"p  c #4C5451",
"a  c #705445",
"s  c #467854",
"d  c #4D6E58",
"f  c #4F7669",
"g  c #70716F",
"h  c #952E1C",
"j  c #9C2D21",
"k  c #A73924",
"l  c #A02F21",
"z  c #A2331F",
"x  c #8D4627",
"c  c #924626",
"v  c #92492A",
"b  c #934826",
"n  c #8F5336",
"m  c #AD442A",
"M  c #B24427",
"N  c #B64A33",
"B  c #AA4B37",
"V  c #9B6928",
"C  c #B56E27",
"Z  c #BB7428",
"A  c #AB6A2A",
"S  c #CE7E2A",
"D  c #C57928",
"F  c #C27F38",
"G  c #8A5B4C",
"H  c #906954",
"J  c #AD754C",
"K  c #9C6C59",
"L  c #C37663",
"P  c #2E803E",
"I  c #268B3D",
"U  c #30823D",
"Y  c #1D803D",
"T  c #548733",
"R  c #6C9331",
"E  c #699C2F",
"W  c #1D8141",
"Q  c #228443",
"!  c #258C44",
"~  c #298946",
"^  c #3A8644",
"/  c #2C9546",
"(  c #2B9848",
")  c #36994C",
"_  c #2DA34A",
"`  c #33A34A",
"'  c #37AB4B",
"]  c #3CB34C",
"[  c #35B24B",
"{  c #38AB4F",
"}  c #458C44",
"|  c #499345",
" . c #479244",
".. c #559A48",
"X. c #488655",
"o. c #569456",
"O. c #4F9257",
"+. c #5DA44B",
"@. c #44B64B",
"#. c #4CB94B",
"$. c #4AB64A",
"%. c #53B94B",
"&. c #5BBA4B",
"*. c #5AB74B",
"=. c #46AA56",
"-. c #49B453",
";. c #56B858",
":. c #44A845",
">. c #60A54C",
",. c #67A84D",
"<. c #64BC4B",
"1. c #6DBD4A",
"2. c #61B448",
"3. c #74BE4B",
"4. c #67A358",
"5. c #69B857",
"6. c #77BC57",
"7. c #78AA4F",
"8. c #589664",
"9. c #518D6D",
"0. c #75836B",
"q. c #6E9174",
"w. c #5CBA64",
"e. c #53AC61",
"r. c #65B866",
"t. c #70B170",
"y. c #7D9F40",
"u. c #7DC24A",
"i. c #78C149",
"p. c #79C256",
"a. c #78C267",
"s. c #78C375",
"d. c #69C26D",
"f. c #91AE37",
"g. c #B78139",
"h. c #D98629",
"j. c #D18937",
"k. c #E08A26",
"l. c #B4C83B",
"z. c #BC8752",
"x. c #87B254",
"c. c #86947A",
"v. c #8A9371",
"b. c #86BC67",
"n. c #9BB464",
"m. c #87BB77",
"M. c #99BA77",
"N. c #8DA76E",
"B. c #A4B962",
"V. c #A78C65",
"C. c #C98E4F",
"Z. c #C39463",
"A. c #86C449",
"S. c #8CC64A",
"D. c #8AC647",
"F. c #91C749",
"G. c #92C949",
"H. c #91C847",
"J. c #96C855",
"K. c #82C458",
"L. c #AFC954",
"P. c #88C667",
"I. c #97CB68",
"U. c #92CD76",
"Y. c #A7D26B",
"T. c #A7CA7B",
"R. c #AAD578",
"E. c #B2D172",
"W. c #C9DB5B",
"Q. c #D1DE48",
"!. c #C6D969",
"~. c #C4D977",
"^. c #D2E04F",
"/. c #C9D83F",
"(. c #5C9482",
"). c #6F9B87",
"_. c #5AAD93",
"`. c #5CB297",
"'. c #68B69C",
"]. c #75BA9B",
"[. c #74A892",
"{. c #77BBA5",
"}. c #6FB5A1",
"|. c #7DC584",
" X c #7BC197",
".X c #7DC4AF",
"XX c #898B88",
"oX c #969897",
"OX c #8D9587",
"+X c #B19C96",
"@X c #87B888",
"#X c #91B18E",
"$X c #A9B099",
"%X c #88BBA8",
"&X c #8FB4B0",
"*X c #A7A8A9",
"=X c #B6B7B9",
"-X c #ABB2AC",
";X c #9E9FA1",
":X c #C3AFA9",
">X c #88C785",
",X c #8ACA96",
"<X c #98C898",
"1X c #93D18C",
"2X c #A9CB85",
"3X c #ABD282",
"4X c #ACD48B",
"5X c #B6D888",
"6X c #A8CB98",
"7X c #A9D59A",
"8X c #B8D898",
"9X c #87C1AA",
"0X c #96CBA8",
"qX c #88C9B8",
"wX c #95CBB8",
"eX c #92D0B0",
"rX c #A6CCA6",
"tX c #B6D8A9",
"yX c #B0D1B0",
"uX c #BBE4AD",
"iX c #C1DB92",
"pX c #C6D9AF",
"aX c #C8E4A9",
"sX c #C7E4B9",
"dX c #D4E8B9",
"fX c #C2E09A",
"gX c #BEBFC1",
"hX c #C2BCC0",
"jX c #98C9C3",
"kX c #8DCCC1",
"lX c #B7D6D8",
"zX c #A8CDCF",
"xX c #BDD8E7",
"cX c #C5C4C6",
"vX c #D8CCCA",
"bX c #CADDD1",
"nX c #D9EBC9",
"mX c #D8EBD4",
"MX c #D3EDCA",
"NX c #E5F4D8",
"BX c #E2F0D4",
"VX c #C4DCE8",
"CX c #CDE1EA",
"ZX c #D8E6EC",
"AX c #DBEAF2",
"SX c #D4E6F1",
"DX c #E3E9EE",
"FX c #E0E7EE",
"GX c #E3EDF3",
"HX c #E0E7F1",
"JX c #EBF6E7",
"KX c #E1CFCD",
/* pixels */
"                                                  X       X + a q z.g.z.Z.q a X X X                                             ",
"                                                o * n J A A A C A Z C C Z Z Z g.j.C.Z.Z.0 X                                     ",
"                                                X z.j.h.h.h.h.h.h.h.Z h.D h.j.j.j.k.h.h.C..                                     ",
"                                                  $ g.h.h.h.h.k.h.h.h.j.S S h.h.S S h.S n X                                     ",
"                                                    H g.h.h.h.h.k.k.h.j.Z D D D Z D D z.O                                       ",
"                                                    . z.Z D D h.h.k.h.C.C C C C C C A 0                                         ",
"                                                      $ Z Z D j.h.h.h.j.A A A A V A J X                                         ",
"                                              X   X X % N.V A Z Z D h.Z V V V V V V V.+ X X                                     ",
"                                              % N.U.t.b.b.n.n.n.B.B.B.B.n.n.n.n.n.n.b.b.m.m.M.q.X                               ",
"                                            + 4.+.,.,.>.>.>.>.>.+.+.>.+.>.>.+.>.>.>.+.+.>.,.+.>.>                               ",
"                                            . o.}  . . . .|  . .|  .T )  .|  .|  . . . .| | } o.&                               ",
"                                              O s ~ U 7 ^ u 7 ^ P P P U U ^ 7 u ^ P 7 ^ U 7 ^ %                                 ",
"                                                  # d f ].%X0XrX9X9X&X%X9X%X%X%X%X{._.).d >                                     ",
"                                                  $ J q K +X:X+X:X+X+X+X+X+X+X+X+X+XK v..                                       ",
"                                                0 b z h c c v v b b b c b v b c h v b b G o                                     ",
"                                              O b z q x c v v v v v b c v v v x x x x x v a                                     ",
"                                            $ n v x x h v v v v x x n h x v n k x v h v h n X                                   ",
"                                        O G v n V.$X-XpXvXKXKXvXvXvXvXvXcXcXgXhXhXcXbXgX*X).O                                   ",
"                                    @ H v n K . % qXbXZXAXAXHXZXSXSXAXGXAXSXxXxXxXVXSXVXzX{.)..                                 ",
"                                o G v v q +   % 9XlXVXZXGXGXHXHXFXAXGXAXSXCXVXxXxXVXSXSXVXzX&X[.X                               ",
"                          X X * v v q O     # {.zXVXZXDXGXGXDXDXDXFXGXGXSXSXVXxXxXxXSXSXSXlXjX{.[..                             ",
"                          $ v b G @       # %XjXlXZXDXDXGXDXDXDXDXFXGXGXSXSXVXVXxXxXVXSXSXSXlX&X}.f                             ",
"                      p G b n $         X (.qXlXVXHXGXGXGXJXDXDXGXGXGXGXAXSXVXxXxXxXVXSXSXAXVXzX&X[.f                           ",
"          o O o o o G v v K O         X (..XzXVXHXGXGXDXDXFXDXDXDXGXGXGXSXSXVXxXxXxXxXSXSXAXAXxXzX&X[.r                         ",
"      o B N N M k j l L X             d }.kXxXCXGXGXGXGXAXAXHXAXAXZXAXAXCXSXCXxXxXxXxXVXCXSXAXAXlXjX&X}.O                       ",
"    * B N N N k k j z B &           p }.qXzXxXAXGXGXGXAXAXAXAXAXAXAXCXCXCXbXxXxXxXxXxXxXCXSXAXGXSXlXjX%X[.                      ",
"    = N k k j j l k M m $         > '.{.kXlXmXZXbXyX[.8.8.8.8.O.O.O.o.o.o.o.+.4.4.t.t.t.<XyXmXmXZXVXzXjX%X[.X                   ",
"  G N k z j h j k M M m $       . }.}.qX).#X-X$X@Xi I ~ U U ^ ^ T ^  . .| | ....+.+.4.4.6.#X6XtXpXMX0X9XkXqXp                   ",
"* B M M z h h z M N N B O X . . {.'.9Xm.@XyX-X6Xs u u 7 ^ ^ ^ } T }  .| :.......+.+.>.>.,.m.2XtXtXdXaXP.,XkXqXr                 ",
"L k M M z h z k M N N a       f `.{.>XU.dXnXnX2Xb.t.t.4.4.o.o.o.O.O.o...o...o.4.4.5.7.6.x.b.4X8XpXdXnX8XP.0XwXqX+               ",
"p B M M k k M M M B @       + `.{.,Xb.aXnXBXiXJ.S.J.J.J.I.I.Y.3X4X5X5X4X3XR.Y.Y.I.J.J.J.J.S.R.fXfXdXnXdXU.P.wXqX).              ",
"$ k M M M M M M B $       . }.'. X6.4XNXNXdXJ.H.F.F.D.D.F.F.F.F.G.G.F.G.F.G.G.G.D.G.D.D.G.G.J.5XfXdXdXBXdXK.>XkX.Xp             ",
"@ M M M M B L K o       X 9.'.].s.I.nXJXNXR.S.G.G.G.G.G.G.G.D.G.D.D.G.G.G.J.R.R.J.G.G.G.H.G.G.E.fXaXdXBXNX4Xp.,XwXqX+           ",
"@ M M B a               % _.].|.p.fXNXJXaXJ.G.S.G.G.G.G.G.G.G.D.G.G.G.G.Y.Y.iXaXR.G.G.G.H.H.G.J.5XfXdXnXNXMXP.K.eXqX}.X         ",
"$ G O                 . `.'.,X5.U.BXJXNXY.G.G.G.G.G.G.G.G.G.G.G.G.G.G.G.Y.Y.Y.Y.R.G.G.G.G.G.G.G.Y.fXaXdXNXJX8Xp.s.eX.Xd         ",
"                      (.`.{.a.5.aXNXJXaXJ.G.G.G.G.D.D.G.G.G.D.G.G.G.G.D.G.!.Y.J.G.G.G.D.H.H.G.D.G.5XaXdXMXNXBXP.p.,XqXqX#       ",
"                    r _.'.|.<.a.nXNXBXI.A.S.S.S.G.G.S.S.D.D.G.G.D.G.S.F.D.G.D.G.D.G.D.G.G.S.S.S.G.Y.fXdXnXBXJX8X<.d.eX.X&X. X   ",
"                    (.`. X6.*.7XnXNXaXK.i.i.A.I.3XaXR.K.A.A.u.A.A.A.A.S.D.D.A.A.A.A.A.A.A.A.A.S.A.S.R.aXdXBXJXnXt.i.>XeX.X%     ",
"                  f `.'.s.&.;.uXMXMXU.i.i.i.J.U.P.R.R.P.u.u.u.i.i.u.i.i.u.u.i.u.i.u.u.u.i.u.u.A.A.u.I.aXsXnXNXJX1X&.p.,XkXkX    ",
"                  9.`. Xp.$.d.MXMXsXp.1.i.i.p.U.Y.P.U.p.i.i.p.P.p.i.i.i.i.i.i.i.i.i.i.p.i.p.U.p.i.i.6.4XsXnXBXJXuX&.<.s.qX.Xp   ",
"                r _.'.s.;.-.1XuXsX4X<.<.i.i.&.p.p.p.<.i.<.a.U.4XP.i.&.i.p.i.&.&.i.i.i.&.i.a.P.p.P.U.p.U.uXMXmXNXMXr.$.3.<XqXqX  ",
"                9.`. X6.:.=.<XtXtXU.&.&.%.%.&.%.%.i.<.<.<.p.U.P.p.i.<.;.&.i.&.i.&.&.i.&.&.i.i.P.U.4XU.P.tXuXMXNXNXd.@.2.>XeX.X% ",
"              . `.'.|.,.` =.7XtXrXd.#.#.&.%.%.%.&.&.&.&.&.&.&.&.&.&.&.&.&.&.&.&.<.&.%.&.&.&.i.P.U.a.a.5.7XuXbXmXJX|.[ :.b.eXqXf ",
"              . _.}.m.+.I -.<X7X7Xw.@.#.#.#.#.%.#.&.&.&.&.&.%.%.&.%.#.#.#.%.%.#.%.%.&.%.%.%.#.;.&.&.%.5.1XtXsXMXNX,X` ` 6.eXqXkX",
"              d _.].m...Q e.>X<X1X;.] ] @.@.#.%.#.#.%.%.#.#.#.#.#.@.#.@.#.@.#.#.#.%.#.%.%.%.%.%.#.#.#.%.1X7XuXsXmX,X( / 7.0XqXqX",
"              q._.}.m.| Q { @X,X,Xw.s.,X;.] @.@.@.#.#.#.#.#.#.@.@.] ] ] @.#.w.w.#.#.#.#.#.#.#.@.@.@.@.@.>X7XuXbXMX|.( I 7.<XqXqX",
"              (.`.{.M...t ) [.U.|.s.w.s.d.] ] @.@.#.#.#.@.] @.] ] [ [ [ ;.d.1XuX1X#.@.#.@.#.@.@.] ] [ @.>X<XeXuXbXr.! I x.0XqXqX",
"              + `.}.#X,.t ~ t.t.t.d.t.w.] [ [ ] ] ] ] ] ] ] [ [ [ [ [ [ d.d.r.s.d.w.@.] @.] ] ] { [ [ { |.,XrXyXyX9.Y U b.eXkXwX",
"              + '.}.%Xx.8 t 8.4.t.e.( _ _ _ ' ` { ' ' ] ' ' ' _ { { e.{ -.1Xr.r.t.-.' ] { ' ' ' ' _ _ { [.@X<XrXrX~ 3 T U.wXqXq.",
"                f '.%XM.T < ^ 8.8.8.( ~ ( ( ( ( ) ` ` ) _ _ _ _ e.r.|.w.` { =.@.' ` ` ` ) ` _ ) ( ( ( O.t.@X#X#Xq.3 2 y.0XjXkX% ",
"                d `.{.0Xx.6 y X.O.O.^ Q Q ! ! ! ~ / / / ( ( ( ( ) t.e.{ ( ( ( ( / / / / / / ~ ! ! ! ! O.q.t.OX#Xi < T M.wXkXkX  ",
"                  (.{.qXM...1 i s s ^ u t W Q W Q Q ~ ~ ! ! ! ! ! ( ( ! ! ! ! ! / ! I ~ ~ Q Q Q Q W ~ X.8.q.t.X.3 8 x.6XjXqX%   ",
"                  # [.9XrXB.T , u i i u y t y y u 7 t u W Q W W W W W ! W Q Q Q P W Q 4 4 u t t y t u X.o.0.s , ; f.4XwXwX%X    ",
"                    > %X&XyXL.w 5 , 7 u 3 y < y < 3 y t t 4 3 4 W W W W t t t t 4 3 4 3 3 3 3 3 y y 1 i s i ; : R 2XyXjXwXO     ",
"                      ).%XwXrXL.T : 2 , , < y y < < < < < 3 3 t 3 t y t t t 3 3 y < < 3 < y y y 1 < , i y 5 6 f.iXyXyXeX#       ",
"                        d %XyXtXE.f.6 ; 2 2 ; ; , < < 1 < < < < < < y y < 3 < < y 1 < < , , 2 , , 2 2 2 5 w L.iXyXrX0X%         ",
"                          OX<XrXyXiXW.R 9 : : ; ; , ; ; , , , , < < 1 1 1 1 , 1 2 2 2 , ; , ; ; ; : : - f.!.8XtXrXrXO           ",
"                            d <X6XtX8X~.L.f.- : ; ; , y i i s d X.i s s s s s s s s i s i y , 9 9 e x.W.iXtX7X6X8Xg             ",
"                            a yX6X2X6XtX6X~.!.Q.f.e 9 : ; ; 8 i s 9.q.).c.[.OXq.0.s i 8 > - R f.W.!.iX8X6X2X6X$XyXhXg o         ",
"                        X cXgXgX-X$X$X2X2X5X8X6X5X!.Q./.l.f.R T w 8 - - - - - T T f.f.l.Q.W.!.3X2X8X2X5XM.$X*X*X=XgXcXcXX       ",
"                      # cXcX=X=X*X*X;XoXN.#X2XE.2X5X2X5X5XE.!.!.W.W.W.W.W.W.W.W.!.E.E.5X4X8X3X2X2X$XM.v.oX;X;X*X=X=XlXvX        ",
"                        g cXgXgX=X*X*X;X;XoXOXc.c.M.M.T.T.R.3XR.3X3X3XR.3X3X3X3X3XT.R.T.T.M.N.c.c.XXXXoX;X;X*X*X=XhXcX%         ",
"                          # XXoXhXgX=X*X*X;XoXoXoXXXXXXXc.v.v.N.N.N.N.N.N.x.N.N.N.v.c.c.XXXXXXoXoXoX;X;X*X*X=XgXhXp             ",
"                                X O g *XhXhX=X-X;XoXOXc.0.0.0.0.0.g 0.0.0.0.0.0.g 0.g v.c.OXoX;X*X*X=X=XgXXXp X                 "
};
