/* XPM */
static char *_4929_ea465cd0850db504152c3dbf1ed838747a12cef36689a495672edc645c052bc2[] = {
/* columns rows colors chars-per-pixel */
"64 64 158 2 ",
"   c #000000",
".  c #2E271F",
"X  c #282722",
"o  c #2E2822",
"O  c #322D25",
"+  c #322F28",
"@  c #393027",
"#  c #36312D",
"$  c #3C342C",
"%  c #3F382D",
"&  c #3A3632",
"*  c #3E3A34",
"=  c #3E3C3A",
"-  c #40362D",
";  c #41382D",
":  c #443C34",
">  c #483E35",
",  c #433D3B",
"<  c #493E38",
"1  c #434036",
"2  c #494136",
"3  c #46423D",
"4  c #4C443C",
"5  c #4E483D",
"6  c #51463C",
"7  c #52493E",
"8  c #594C3C",
"9  c #413F40",
"0  c #454343",
"q  c #4C4642",
"w  c #4E4943",
"e  c #4E4C4A",
"r  c #504740",
"t  c #544C44",
"y  c #594D45",
"u  c #534E49",
"i  c #594F49",
"p  c #555146",
"a  c #5A5146",
"s  c #56514C",
"d  c #5C534B",
"f  c #5D584D",
"g  c #555252",
"h  c #5C5552",
"j  c #5E5953",
"k  c #5E5D5A",
"l  c #625445",
"z  c #665845",
"x  c #695A47",
"c  c #62554C",
"v  c #68574F",
"b  c #64594D",
"n  c #6A5C4D",
"m  c #615751",
"M  c #645B53",
"N  c #6A5D53",
"B  c #635D59",
"V  c #695F59",
"C  c #715D53",
"Z  c #6D614D",
"A  c #72624E",
"S  c #77694F",
"D  c #676056",
"F  c #6C6255",
"G  c #6F6A57",
"H  c #66615B",
"J  c #6C645B",
"K  c #6E695E",
"L  c #726454",
"P  c #746957",
"I  c #7A6C55",
"U  c #72665B",
"Y  c #7A665B",
"T  c #736A5D",
"R  c #7A6C5D",
"E  c #7B715F",
"W  c #676561",
"Q  c #6C6661",
"!  c #676863",
"~  c #6E6963",
"^  c #716761",
"/  c #786760",
"(  c #746C63",
")  c #7A6E63",
"_  c #736E6A",
"`  c #786F68",
"'  c #777064",
"]  c #7C7264",
"[  c #7F7865",
"{  c #75716B",
"}  c #7D746A",
"|  c #7E786C",
" . c #706E71",
".. c #7B7771",
"X. c #7E7974",
"o. c #7F7E7A",
"O. c #806D5F",
"+. c #847357",
"@. c #81735D",
"#. c #88775B",
"$. c #8B7B5E",
"%. c #927F5F",
"&. c #816D64",
"*. c #826F68",
"=. c #827565",
"-. c #897366",
";. c #847966",
":. c #8B7B64",
">. c #827669",
",. c #89766F",
"<. c #847A6C",
"1. c #8A7E6C",
"2. c #807770",
"3. c #847C72",
"4. c #8A7E72",
"5. c #847F7B",
"6. c #887E7C",
"7. c #8F8167",
"8. c #87806E",
"9. c #8D816D",
"0. c #938366",
"q. c #93846D",
"w. c #97896F",
"e. c #99886E",
"r. c #868074",
"t. c #8C8273",
"y. c #86817C",
"u. c #8D857B",
"i. c #928573",
"p. c #958974",
"a. c #9B8C74",
"s. c #93867A",
"d. c #958A7A",
"f. c #9A8C7A",
"g. c #9D9177",
"h. c #9D917C",
"j. c #A0906F",
"k. c #A29275",
"l. c #A79976",
"z. c #AA9976",
"x. c #A3947A",
"c. c #A7997E",
"v. c #AC9D7C",
"b. c #AFA17E",
"n. c #858480",
"m. c #8D8782",
"M. c #8B8883",
"N. c #928B84",
"B. c #998D81",
"V. c #948E8A",
"C. c #979080",
"Z. c #9E9381",
"A. c #9C948C",
"S. c #A49682",
"D. c #A69882",
"F. c #AB9B83",
"G. c #A0968A",
"H. c #A9A099",
/* pixels */
"s B k g k H _ Q V _ Q / 4.4.f.d.t.j | s.q.A.) R U T ] 1.` V d Q ` u.d.2.X.~ X.d.S.1.p.s.6./ ( ^ X.3.( X.| r.| | B <.} >.y.( B B ",
"J ( Q k W V 4.3.^ } <.4.f.4.p.i.t.B 3.i.] s.` 1.` ` 3.4.} } H _ 6.B.d.N.V...3.6.F.F.a.f.6.( ( J 6.2.` ` 3.3.X.} V 2.4.4.3.Q ( M ",
"J ^ _ B ( } } J 2.<.3.} i.t.4.s.4.~ <.:.( 4.) <.,.` s.Z.i.3._ 2.4.d.f.6.3.2.2.S.F.F.c.p.X.( ` B 3.2.Q ` 3.2.2.` { >.>.| ( H J F ",
"e e r 9 q q u u i u t y r t t 6 4 Q r y 6 c y v 8 : t y d r t J u y t q 4 q q r t 6 6 4 U d i t m i t i t t r r 4 t 4 4 6 4 < : ",
"h h h B B h g g g g H j i.C.Z.C.i.` <.s.B.H.B.s._ _ { Q ( Q B k g u g H B y 4.( } H ` _ _ W Q W  .} M / 4.,.*.*.*.*.*.-.&.Y Y / ",
"i g g h h h V V Q H j k i.d.u.i.1.;.>.<.d.d.d.4.B t.,.} | 4.<.H ( } ` ' | 9 6.2.,.) >.4.t.s.2.} Q 4.d / -.-.&.*.-.*.-./ Y R Y U ",
"h u h h m j M B H J g H i.t.=.] &.=.;.;.f.t.d.<.~ 1.4.=.| ` ^ g W Q ( { ` 4 ,.i.=.} ` 4.i.4.3.3._ 2.V ) *.&./ &.*.&.&.&.s.*.Y N ",
"U B B h j B h B B V g { <.] R R ;.1.} s.h.A.i.<.3 <.t.i.t.| } Q J ~ ` r.>.: [ <.1.>.` 4.i.s.4.<.>.4.Q / 4.*.&.*./ &./ -.4.&.Y B ",
"d s H J ! W ~ Q J ~ ~ n.{ ~ M H H F J ~ ( _ M a } 5 6 y y p 5 4 u p p y m X.M u u t u $ o O < 4 6 7 m m t t 7 6 y m a y J J ( / ",
"_ J B h h s B h j W V H ~ 4.} H ' n.d.Z.q.d.f.s.9.a.1.q.:.e.;.k >.B.3.| 4.{ ! } <.} <.t.H <.<.1.4.' H | ] <.] ` 2.2.| ` 5.` ( J ",
"D j B g h h B d B H T H j } J M =.o.4.q.1.8.<.9.p.s.i.i.q.9.<.2.d.p.u.<.t._ } 2.` ( ' <.V 4.9.>.| ] } <.} } ) ( ` ) Y ` <.| } _ ",
"J B d e 0 u u m B V B s M { H B Y ~ 4.p.i.A.<.1.i.i.i.9.;.q.1.} 4.u.u.| | >.} <.] >.<.<.J ] ] ' } } } } } ( ) ( ` ` F ( } } } Q ",
"u q 3 , , q , q u t w = u B h e f u U F ;.>.T R ) <.=.;.t.q.R f h ( B B J H H T ( ` ' ( 5.U } ' [ } >.>.( ^ U ( _ ` ..} 2._ ( _ ",
"j f k m f B B H V H W H H W k J ..| ( { ' ` ~ | y.H H ` _ t.] ) ' } <.<.>.m.3.4.t.} 3.| 4.>.| Y U ` ` } / ( Q } ,.3.>.( ^ Q J V ",
"B B u d h h d j j H M _ } } ( J } ] 1.<.3.d.>.u.{ 8.) <.1.1.1.8.>.;.8.t.4.| <.s.g.a.k.e.i.p.e.4.q.9.] ` 4.f.f.i.4.f.f.4.B.i.4.>.",
"J B u s h s h B B Q h ~ >.] ` ( J T } <.>.m.<.>.3.;.-.1.1.t.t.9.| 1.1.9.] B a.p.a.e.x.k.e.q.e.e.1.0.] ;.f.f.s.f.f.f.f.s.f.f.4.2.",
"F F u j M h j m i ` B _ <.4.<.| } } <.8.| V.p.<.2.<.i.<.i.0.9.7.=.1.<.;.T J p.a.a.k.k.x.a.q.1.a.1.q.R <.i.i.s.i.p.a.f.i.i.p.i.1.",
"k d p q 5 w 5 w t i h ~ w t 5 4 > > t 5 1 > > 4 ( 4 7 8 8 t 2 > > 2 ; % ; m 2 6 8 6 8 8 6 8 8 c l z 8 M N F N c M L L c n d t < ",
"( D j F B D s s h H W Q ' <.t.[ [ h d.t.d.d.f.i.q.a.a.i.0.1.1.{ t.t.<.<.| ;.x.g.z.v.v.c.y <.i.<.1.t.>.' ' 1.1.>.<.} >.<.>.' [ ( ",
"F V N J N p e s i M W V ( T } <.<.j p.:.1.1.0.1.q.e.a.D.a.d.=.} x.i.w.7.7.g.z.a.z.z.b.c.m p.t.1.i.9.q.,.>.t.p.t.i.i.i.u.] >.;.} ",
"K M p m u t s s h u h k M K [ ' ) ~ 1.:.:.:.;.-.:.a.h.S.g.p.' } p.7.w.k.l.k.j.z.z.z.z.z.` t.t.<.<.=.<.<.=.<.=.<.<.<.1.8.=.1.>.] ",
"d s w 3 u d 0 t w q e j j F T T T s =.<.q.i.a.a.p.x.x.Z.S.a.;.{ A.w.g.x.x.c.v.F.v.v.v.b.( <.<.;.<.=.1.] T =.>.<.<.>.4.,.} } ( ' ",
"s a a j s m j f m B s w m f b D J | U T J Q { _ 4 H _ ~ J h d d 2 * 5 f m s s f c M U J r.H M D M f d c f y 5 > 4 a d s c m f 6 ",
"s f y D D d N f f J j * <.| t.a.p.8.( 1.1.i.p.x.X 3.u.| d.t.t.8.~ T _ H H T ] >.] ' T } [ ] } ] T T T _ ) } F ( ( ' ( ( Q ( ` ' ",
"f a u a d m V h h H c 3 [ ) <.1.<.=.R 9.9.t.p.x.o r.<.T =.R 2.[ <.t.<.<.' K K ] <.' ( >.<.] ' ' T K d t <.T K ] ~ U ' ( J ~ J ( ",
"J H b V m h V M m F u k ( R ] <.] ] ] ;.t.8.q.a.q [ ;.T =.U m.] 8.~ ] <.| ..F ' =.[ [ ( ] ' ' ' T ( f u } ( J J J U T F J K H J ",
"+ : 1 2 : * , + # # . K , 4 5 t a p 5 a b b f F ~ 5 d d f u ~ m K D K T D ( s U G G T F G T J J D D u V } H J T ( H F H B s u 4 ",
"q q t t y t i y h c s e j j F V d k { H K K E ( H ' ~ ( | 4._ , T ~ 8.q.7.E ;.7.q.q.:.$.d K <.} ] _ T H } ] K ' ( ( K J J T T H ",
"t y y c c y v l d N C B N U U Y Y s H 3.<.| } [ ( [ ' [ ( ' ' # ;.<.0.e.;.@.0.$.0.0.+.S f D t.<.' ' T K >.| ( ] ] ] ;.<.<.<.} [ ",
"c y y c c c c v c C L N U Y Y =.@.d s | <.} <.] K T ] T ] } | s E #.I 7.+.F I +.#.+.S Z B D t.<.' ( T T ` ' T ' ' ] ' ' T ] <.[ ",
"c d c c y v v c c C L N V Y Y R R d J >.r.| t.| T ( ' ' ' ` <.D E #.E E E E E #.0.0.I I d K r.8.<.;.T s ] [ ' [ E ' T K T J K ( ",
"t c t r 9 r < 6 , & : : O ; $ . O u M.t s d f b b D F J J F K F 1 f b b a a 7 6 ; ; $ O % * > 6 1 2 7 y 4 @ 6 6 a p t 7 y 4 : 4 ",
"s p d p p d d s M h B H ] E ] ' T M d D D R T F * T J R I D T <.j E ) F N B J } ;.[ =.=.[ ] ;.[ } 1.J ..( H ` ` J V ( T T ( U T ",
"M M M d F m v u ) ] ] j E F T R T G G L D E [ [ j T L @.[ F ] ] ' [ [ =.I u T q.p.p.q.[ ] >.:.<.] <.<.{ <.<.1.t.<.<.>.>.>.<.] } ",
"M D D b B b N Y T } ;.= [ ' G E G F F G T P ;.E H I ( ] U D F ;.( =.=.R T f K q.0.0.:.R I Y ] ;.) +.;.{ <.>.4.1.t.<.' [ [ } [ ' ",
"b v d b n f R J F ) ;.k [ ] ] ;.] [ T E E E E B } J ] =.T ( K =.( =.I R -.u D w.q.q.$.P U U =.] 1.1.8.X.u.<.<.i.<.;.<.[ =.1.=.' ",
"~ ~ _ H ( _ _ H m H B _ m d j m f s m J F H U J J D U ` 2.| H a M K ..2.y.3.' T M D J F F F T f M b c } y y c a l a d d t l i a ",
"F M B D M M N m f m F B J ( T J T D ~ :.1.9.9.q.t.<.<.1.7.9.<.u { <.' T [ } <.<.' ( E H B m V m J F U M J N M c d c s c m N m c ",
"J B b v m U N n d s U ) J U T U [ p K f.i.;.:.1.1.:.:.:.;.q.<.t J <.>.) ] ' ] } J T E ( J u N v b N N N N c f d i c d d d n N M ",
"T T F F V L L a d f F I Y ( ) T <.w D t.p.=.q.i.O.@.i.q.9.i.4.~ } 3.( [ R ( <.<.T ] E R V u d M L L L U U F c d c d y i c c c n ",
"F U T L J U L M s d T R T ] ( J ( 2 f =.<.=.<.8.1.] ] >.<.1.} & H ' U } ;.K ' ( ] =.F T M s > v Y Y F L L N n l i l y y c l c c ",
"s d s s j s j M s g h : ( ( T I U } ] ( ) ' ( } 5 s M J H _ { H ~ _ ( } ( j 7 j ~ ( K ( | y.X.J ~ } N a N V n b m Q J ^ V y V U ",
"p t s a j n M f b D T w :.9.9.;.[ E R ] 9.p.p.q.5 M <.[ ( ( K K ' ' ` ] E p h j ' K J F K T ' ' ( ( 8.K N Y V J N c M M F H U V ",
"f a d c b F J F F h T K <.;.1.1.;.] L @.p.9.p.q.p H 8.8.<.] ' [ <.] ] E 8.j K >.4.| <.T ( <.} ] ] ] ] ..Y R U ) C N L F L L Y T ",
"b M F D T K B F K b K ..;.E ;.<.;.;.;.;.p.7.q.p.K D <.;.T t.8.q.t.8.8.<.8.K X.t.u.t.t.;.T ' ' } ( ] <.( L I U Y T F N M N F F F ",
"s f c s p s s 3 5 * : ..p p a a a f f D T T E T w o 1 p 5 5 w p D G J F G f { _ ( D J T T ( } { <.8.' _ M Y U T J U Y Y Y U F B ",
"s h h f f f s 0 0 q 0 w u s s p f 0 3 K J H k D K D g h M j k o.J ( } ( ^ J ( ( ~ K F B D V T M j M c J B / Q Q U V s N ( ( ` ` ",
"c d f n M M v a t d w f n v F E R 3 q | { [ T J E K K ' K J J j H ( ( J J T J F K K R T d B =.R R =.] J L ] R I ] ) ) ( Y L n I ",
"n N b b n b d t 4 t p c v n F J ( q ~ ] <.' F J K K K J T F T a F ;.T ] T T ) T T R E ] B ^ ;.;.:.R =.I R =.=.E T ) R O.L S A R ",
"U C N n M Z b u u a d F M v N T T s ~ } ] ] T D J J D K J K T t M ] P T J J T U T ) I Y b H :.1.<.i.-.;.=.<.=.R =.) ;.Y S L F Y ",
"t 7 6 6 4 4 4 > 1 : & + : : > : * u ..2 y 4 : 1 2 1 : 5 7 t 2 [ 4 7 p y 4 t t w 6 a l c q V V F F D Z n B F a N U U R A A m D J ",
"M M d u m h s e 0 u u b u s m h s d M M c d e j ( D F Z n F N F P L P L P N N m N M m m l c l i c m f f B V V M B m ( ( U Q M B ",
"d p s u s a d w e M s { D m m d f M m M D M m n _ J U b M n F J I R K R P @.H C N v v v v n v v n v l d N m N V U J M ] =.] R T ",
"D s f p c f u q w f j ~ F f M f s M f b s b M F ~ ( T J L B F L F L F F L R ( C v c y c v v v l n N v r V =.R R Y I Y P Y J R P ",
"J b s s B M u u d j s Q H D M v b U R F v F T T H F I K R T U T =.] =.E &.=./ C v v l l y v b i c b v y v C U U V R n U F F ) Y ",
"* > q u e * & , & * % y @ @ @ % < % > 2 > 2 2 > m < > > 2 % O % $ $ > 1 > < ` - < 8 9 < > - < 4 < 4 6 y c F U T U F D D J F b f ",
"0 = , 0 0 q u u w w r d m i s a s d q t s y y s m y y u t r q ( n N F M Y U L U F I J N s 6.y h d d m b b M M b b d n b Z x n b ",
", , 4 3 u 3 r 3 , q , 4 4 q y a s k s t t u u u d u 6 i t r t ..c M F b M U U H N V J M d 3.N n b F F N D F M M z z l x b a b x ",
"0 4 3 4 w 0 t t 4 , r q y u d d d _ j c c y t d b s 6 i t r y X.M f M D F N F V U F F F s ^ n n A Z F M n L F n n x x Z x Z l x ",
"t s y y d u m n c M i q t d y v d ..B c n d l c d a t d t q a 6.c b v d N N n N F n M n f m.N L x L n M N U L Z a z x a z a a z ",
"s d u d d s y d s t u h s s a 7 4 X.} 4 8 6 y t u B t u s l m m.d d t t y t i t y l i s y m.i 6 7 6 4 4 t u y 6 8 a l a a t 5 @ ",
"u t t q t 4 < q y u s j , w w u q 4 q u u y s M U _ y i i u q u t 4 q 0 0 t 2.s u a y a t u t 4 4 t q d ..e t 0 0 3 e s p s H M ",
"3 t q 4 3 , , , r t u H = , 3 w u u t s d y s c J Q f y t s d m u , 4 4 4 w 5.u u y l a y y 7 t t 6 t d } w 7 s d d d u p d 0 a ",
"                                                                                                                                "
};
